HIERARCHY
ROOT mixamorig:Hips
{
	OFFSET -0.000008 104.274872 1.554316
	CHANNELS 6 Xposition Yposition Zposition Xrotation Yrotation Zrotation
	JOINT mixamorig:Spine
	{
		OFFSET -0.000005 10.181595 0.131519
		CHANNELS 6 Xposition Yposition Zposition Xrotation Yrotation Zrotation
		JOINT mixamorig:Spine1
		{
			OFFSET -0.000000 9.893959 -1.470707
			CHANNELS 6 Xposition Yposition Zposition Xrotation Yrotation Zrotation
			JOINT mixamorig:Spine2
			{
				OFFSET -0.000000 9.220757 -1.370641
				CHANNELS 6 Xposition Yposition Zposition Xrotation Yrotation Zrotation
				JOINT mixamorig:Neck
				{
					OFFSET 0.000001 16.740417 -2.049036
					CHANNELS 6 Xposition Yposition Zposition Xrotation Yrotation Zrotation
					JOINT mixamorig:Head
					{
						OFFSET 0.000000 9.617874 1.685006
						CHANNELS 6 Xposition Yposition Zposition Xrotation Yrotation Zrotation
						JOINT mixamorig:HeadTop_End
						{
							OFFSET 0.000002 22.037354 7.501101
							CHANNELS 6 Xposition Yposition Zposition Xrotation Yrotation Zrotation
							End Site
							{
								OFFSET 0.000168 2310.654297 -282.823242
							}
						}
					}
				}
				JOINT mixamorig:RightShoulder
				{
					OFFSET -4.569970 11.014908 -2.160885
					CHANNELS 6 Xposition Yposition Zposition Xrotation Yrotation Zrotation
					JOINT mixamorig:RightArm
					{
						OFFSET -10.592851 -0.524811 -2.232101
						CHANNELS 6 Xposition Yposition Zposition Xrotation Yrotation Zrotation
						JOINT mixamorig:RightForeArm
						{
							OFFSET -27.841511 0.000031 -0.000004
							CHANNELS 6 Xposition Yposition Zposition Xrotation Yrotation Zrotation
							JOINT mixamorig:RightHand
							{
								OFFSET -28.328831 -0.000015 0.000015
								CHANNELS 6 Xposition Yposition Zposition Xrotation Yrotation Zrotation
								JOINT mixamorig:RightHandThumb1
								{
									OFFSET -2.464806 -1.573990 2.681852
									CHANNELS 6 Xposition Yposition Zposition Xrotation Yrotation Zrotation
									JOINT mixamorig:RightHandThumb2
									{
										OFFSET -3.215179 -1.872803 1.924282
										CHANNELS 6 Xposition Yposition Zposition Xrotation Yrotation Zrotation
										JOINT mixamorig:RightHandThumb3
										{
											OFFSET -2.654831 -1.527969 1.512609
											CHANNELS 6 Xposition Yposition Zposition Xrotation Yrotation Zrotation
											JOINT mixamorig:RightHandThumb4
											{
												OFFSET -2.018814 -1.152008 1.108052
												CHANNELS 6 Xposition Yposition Zposition Xrotation Yrotation Zrotation
												End Site
												{
													OFFSET -188.809540 -114.533607 132.431396
												}
											}
										}
									}
								}
								JOINT mixamorig:RightHandIndex1
								{
									OFFSET -9.108284 -0.517868 2.259835
									CHANNELS 6 Xposition Yposition Zposition Xrotation Yrotation Zrotation
									JOINT mixamorig:RightHandIndex2
									{
										OFFSET -3.699989 0.000000 0.001215
										CHANNELS 6 Xposition Yposition Zposition Xrotation Yrotation Zrotation
										JOINT mixamorig:RightHandIndex3
										{
											OFFSET -2.850006 0.000031 -0.000522
											CHANNELS 6 Xposition Yposition Zposition Xrotation Yrotation Zrotation
											JOINT mixamorig:RightHandIndex4
											{
												OFFSET -2.772186 -0.000015 -0.000020
												CHANNELS 6 Xposition Yposition Zposition Xrotation Yrotation Zrotation
												End Site
												{
													OFFSET -277.218445 0.000000 -0.050231
												}
											}
										}
									}
								}
								JOINT mixamorig:RightHandMiddle1
								{
									OFFSET -9.532516 -0.000031 -0.000023
									CHANNELS 6 Xposition Yposition Zposition Xrotation Yrotation Zrotation
									JOINT mixamorig:RightHandMiddle2
									{
										OFFSET -3.700005 -0.000015 0.003713
										CHANNELS 6 Xposition Yposition Zposition Xrotation Yrotation Zrotation
										JOINT mixamorig:RightHandMiddle3
										{
											OFFSET -2.949974 0.000015 -0.002054
											CHANNELS 6 Xposition Yposition Zposition Xrotation Yrotation Zrotation
											JOINT mixamorig:RightHandMiddle4
											{
												OFFSET -2.946640 0.000000 -0.000156
												CHANNELS 6 Xposition Yposition Zposition Xrotation Yrotation Zrotation
												End Site
												{
													OFFSET -294.664337 0.000000 -0.113670
												}
											}
										}
									}
								}
								JOINT mixamorig:RightHandRing1
								{
									OFFSET -9.103600 -0.043076 -1.865134
									CHANNELS 6 Xposition Yposition Zposition Xrotation Yrotation Zrotation
									JOINT mixamorig:RightHandRing2
									{
										OFFSET -3.379288 0.000000 -0.001055
										CHANNELS 6 Xposition Yposition Zposition Xrotation Yrotation Zrotation
										JOINT mixamorig:RightHandRing3
										{
											OFFSET -2.889687 -0.000015 0.000379
											CHANNELS 6 Xposition Yposition Zposition Xrotation Yrotation Zrotation
											JOINT mixamorig:RightHandRing4
											{
												OFFSET -2.638809 -0.000015 0.000941
												CHANNELS 6 Xposition Yposition Zposition Xrotation Yrotation Zrotation
												End Site
												{
													OFFSET -263.880371 0.000000 0.516020
												}
											}
										}
									}
								}
								JOINT mixamorig:RightHandPinky1
								{
									OFFSET -8.076683 -0.486710 -3.806280
									CHANNELS 6 Xposition Yposition Zposition Xrotation Yrotation Zrotation
									JOINT mixamorig:RightHandPinky2
									{
										OFFSET -3.600014 -0.000015 -0.003747
										CHANNELS 6 Xposition Yposition Zposition Xrotation Yrotation Zrotation
										JOINT mixamorig:RightHandPinky3
										{
											OFFSET -2.099983 0.000000 -0.005739
											CHANNELS 6 Xposition Yposition Zposition Xrotation Yrotation Zrotation
											JOINT mixamorig:RightHandPinky4
											{
												OFFSET -2.115768 -0.000031 -0.003680
												CHANNELS 6 Xposition Yposition Zposition Xrotation Yrotation Zrotation
												End Site
												{
													OFFSET -211.577087 0.000000 -0.350686
												}
											}
										}
									}
								}
							}
						}
					}
				}
				JOINT mixamorig:LeftShoulder
				{
					OFFSET 4.570447 11.014725 -2.160855
					CHANNELS 6 Xposition Yposition Zposition Xrotation Yrotation Zrotation
					JOINT mixamorig:LeftArm
					{
						OFFSET 10.592371 -0.524597 -2.232119
						CHANNELS 6 Xposition Yposition Zposition Xrotation Yrotation Zrotation
						JOINT mixamorig:LeftForeArm
						{
							OFFSET 27.841532 -0.000031 0.000026
							CHANNELS 6 Xposition Yposition Zposition Xrotation Yrotation Zrotation
							JOINT mixamorig:LeftHand
							{
								OFFSET 28.328846 -0.000061 0.000022
								CHANNELS 6 Xposition Yposition Zposition Xrotation Yrotation Zrotation
								JOINT mixamorig:LeftHandThumb1
								{
									OFFSET 2.466141 -1.576172 2.681732
									CHANNELS 6 Xposition Yposition Zposition Xrotation Yrotation Zrotation
									JOINT mixamorig:LeftHandThumb2
									{
										OFFSET 3.217812 -1.872070 1.916482
										CHANNELS 6 Xposition Yposition Zposition Xrotation Yrotation Zrotation
										JOINT mixamorig:LeftHandThumb3
										{
											OFFSET 2.656029 -1.528778 1.514513
											CHANNELS 6 Xposition Yposition Zposition Xrotation Yrotation Zrotation
											JOINT mixamorig:LeftHandThumb4
											{
												OFFSET 2.020889 -1.154053 1.115139
												CHANNELS 6 Xposition Yposition Zposition Xrotation Yrotation Zrotation
												End Site
												{
													OFFSET 190.885437 -115.081749 130.048782
												}
											}
										}
									}
								}
								JOINT mixamorig:LeftHandIndex1
								{
									OFFSET 9.109314 -0.518021 2.259871
									CHANNELS 6 Xposition Yposition Zposition Xrotation Yrotation Zrotation
									JOINT mixamorig:LeftHandIndex2
									{
										OFFSET 3.699989 0.000000 -0.000322
										CHANNELS 6 Xposition Yposition Zposition Xrotation Yrotation Zrotation
										JOINT mixamorig:LeftHandIndex3
										{
											OFFSET 2.850006 0.000000 0.000352
											CHANNELS 6 Xposition Yposition Zposition Xrotation Yrotation Zrotation
											JOINT mixamorig:LeftHandIndex4
											{
												OFFSET 2.774864 -0.000031 -0.000027
												CHANNELS 6 Xposition Yposition Zposition Xrotation Yrotation Zrotation
												End Site
												{
													OFFSET 277.486267 0.000000 -0.009857
												}
											}
										}
									}
								}
								JOINT mixamorig:LeftHandMiddle1
								{
									OFFSET 9.533394 0.000061 0.000044
									CHANNELS 6 Xposition Yposition Zposition Xrotation Yrotation Zrotation
									JOINT mixamorig:LeftHandMiddle2
									{
										OFFSET 3.699989 -0.000015 -0.000231
										CHANNELS 6 Xposition Yposition Zposition Xrotation Yrotation Zrotation
										JOINT mixamorig:LeftHandMiddle3
										{
											OFFSET 2.949997 -0.000015 -0.000059
											CHANNELS 6 Xposition Yposition Zposition Xrotation Yrotation Zrotation
											JOINT mixamorig:LeftHandMiddle4
											{
												OFFSET 2.952896 0.000031 0.000063
												CHANNELS 6 Xposition Yposition Zposition Xrotation Yrotation Zrotation
												End Site
												{
													OFFSET 295.289337 0.000000 0.022810
												}
											}
										}
									}
								}
								JOINT mixamorig:LeftHandRing1
								{
									OFFSET 9.104523 -0.042999 -1.865074
									CHANNELS 6 Xposition Yposition Zposition Xrotation Yrotation Zrotation
									JOINT mixamorig:LeftHandRing2
									{
										OFFSET 3.150009 -0.000031 0.000043
										CHANNELS 6 Xposition Yposition Zposition Xrotation Yrotation Zrotation
										JOINT mixamorig:LeftHandRing3
										{
											OFFSET 2.949982 -0.000015 0.000040
											CHANNELS 6 Xposition Yposition Zposition Xrotation Yrotation Zrotation
											JOINT mixamorig:LeftHandRing4
											{
												OFFSET 2.644348 0.000000 0.000057
												CHANNELS 6 Xposition Yposition Zposition Xrotation Yrotation Zrotation
												End Site
												{
													OFFSET 264.434631 0.000000 0.012105
												}
											}
										}
									}
								}
								JOINT mixamorig:LeftHandPinky1
								{
									OFFSET 8.077789 -0.486847 -3.806259
									CHANNELS 6 Xposition Yposition Zposition Xrotation Yrotation Zrotation
									JOINT mixamorig:LeftHandPinky2
									{
										OFFSET 3.599953 0.000031 0.014727
										CHANNELS 6 Xposition Yposition Zposition Xrotation Yrotation Zrotation
										JOINT mixamorig:LeftHandPinky3
										{
											OFFSET 2.100021 0.000015 0.007705
											CHANNELS 6 Xposition Yposition Zposition Xrotation Yrotation Zrotation
											JOINT mixamorig:LeftHandPinky4
											{
												OFFSET 2.125504 0.000031 0.007517
												CHANNELS 6 Xposition Yposition Zposition Xrotation Yrotation Zrotation
												End Site
												{
													OFFSET 212.550781 0.000000 0.625752
												}
											}
										}
									}
								}
							}
						}
					}
				}
			}
		}
	}
	JOINT mixamorig:RightUpLeg
	{
		OFFSET -8.207787 -6.751648 -1.599560
		CHANNELS 6 Xposition Yposition Zposition Xrotation Yrotation Zrotation
		JOINT mixamorig:RightLeg
		{
			OFFSET -0.000002 -44.370117 0.345942
			CHANNELS 6 Xposition Yposition Zposition Xrotation Yrotation Zrotation
			JOINT mixamorig:RightFoot
			{
				OFFSET 0.000003 -44.423679 -3.043532
				CHANNELS 6 Xposition Yposition Zposition Xrotation Yrotation Zrotation
				JOINT mixamorig:RightToeBase
				{
					OFFSET -0.000002 -8.728671 10.710558
					CHANNELS 6 Xposition Yposition Zposition Xrotation Yrotation Zrotation
					JOINT mixamorig:RightToe_End
					{
						OFFSET -0.000001 -0.000679 9.278119
						CHANNELS 6 Xposition Yposition Zposition Xrotation Yrotation Zrotation
						End Site
						{
							OFFSET 0.000000 -0.067690 927.812134
						}
					}
				}
			}
		}
	}
	JOINT mixamorig:LeftUpLeg
	{
		OFFSET 8.207793 -6.751686 -1.599556
		CHANNELS 6 Xposition Yposition Zposition Xrotation Yrotation Zrotation
		JOINT mixamorig:LeftLeg
		{
			OFFSET -0.000004 -44.370014 0.346954
			CHANNELS 6 Xposition Yposition Zposition Xrotation Yrotation Zrotation
			JOINT mixamorig:LeftFoot
			{
				OFFSET -0.000001 -44.423672 -3.044401
				CHANNELS 6 Xposition Yposition Zposition Xrotation Yrotation Zrotation
				JOINT mixamorig:LeftToeBase
				{
					OFFSET -0.000002 -8.728669 10.710558
					CHANNELS 6 Xposition Yposition Zposition Xrotation Yrotation Zrotation
					JOINT mixamorig:LeftToe_End
					{
						OFFSET -0.000003 -0.000679 9.278133
						CHANNELS 6 Xposition Yposition Zposition Xrotation Yrotation Zrotation
						End Site
						{
							OFFSET 0.000000 -0.068021 927.813477
						}
					}
				}
			}
		}
	}
}
MOTION
Frames: 3
Frame Time: 0.033333
0.000006 104.270477 1.554256 0.000010 0.000003 -0.000113 -0.000005 10.181587 0.131522 0.000001 -0.000003 0.000084 -0.000000 9.893967 -1.470711 0.000001 0.000000 -0.000000 -0.000000 9.220802 -1.370642 0.000000 -0.000000 -0.000000 0.000001 16.740433 -2.049030 0.000000 -0.000000 -0.000000 0.000000 9.617859 1.685014 0.000000 0.000000 0.000000 0.000002 22.037384 7.501101 0.000000 -0.000000 0.000000 -4.569968 11.014880 -2.160881 0.000008 0.000001 -0.000038 -10.592869 -0.524781 -2.231897 74.667314 32.117882 -24.766445 -27.841522 -0.000001 0.000557 -54.029610 107.529068 69.654071 -28.328812 0.000020 0.000035 -0.000317 -0.000044 0.000006 -2.464416 -1.573792 2.682346 -46.367091 -164.777180 -5.820055 -3.215271 -1.872545 1.924649 152.552863 32.529063 11.819940 -2.654979 -1.527880 1.513082 148.605396 26.912057 -34.279565 -2.018842 -1.152005 1.108073 -0.000003 -0.000001 0.000002 -9.108377 -0.517576 2.260152 105.301163 16.194718 -21.181325 -3.700062 0.000326 0.001539 100.881969 12.354119 -14.900408 -2.850093 0.000378 -0.000258 98.169175 10.055193 -11.590837 -2.772155 -0.000001 -0.000018 -0.000000 0.000001 -0.000000 -9.532573 0.000283 0.000218 88.748077 14.182646 -14.015933 -3.700048 0.000353 0.003935 88.612163 9.769610 -9.446952 -2.950051 0.000343 -0.001839 88.403056 9.950798 -9.671789 -2.946633 -0.000000 -0.000153 -0.000003 0.000000 0.000000 -9.103689 -0.042760 -1.864885 86.240373 16.517206 -15.438893 -3.379319 0.000308 -0.000863 85.553433 7.599176 -7.048302 -2.889740 0.000358 0.000585 89.487916 4.420911 -4.425138 -2.638793 0.000001 0.000937 -0.000000 0.000000 0.000003 -8.076726 -0.486394 -3.806062 79.084561 14.563930 -11.921831 -3.600039 0.000265 -0.003573 80.285493 5.100855 -4.016163 -2.100012 0.000324 -0.005549 83.179300 3.095078 -2.559510 -2.115763 -0.000056 -0.003677 0.000002 -0.000000 -0.000005 4.570446 11.014691 -2.160851 -0.000018 0.000010 -0.000021 10.592421 -0.524464 -2.232378 74.866919 -18.860418 14.491500 27.841829 0.000062 -0.000207 106.294184 -70.428362 86.556836 28.328840 -0.000029 0.000024 0.000025 -0.000089 -0.000000 2.465959 -1.576142 2.681911 -44.750658 163.881250 2.369868 3.217805 -1.871730 1.916359 153.656935 -30.082762 5.169169 2.656089 -1.528611 1.514437 143.041223 -27.938938 31.603207 2.020880 -1.154057 1.115152 0.000005 0.000003 0.000001 9.109390 -0.517844 2.259737 88.865091 -16.592879 16.259614 3.700039 0.000161 -0.000451 84.676847 -15.645913 14.286779 2.850055 0.000166 0.000215 82.058849 -13.361251 11.638446 2.774888 -0.000030 -0.000023 0.000001 -0.000000 -0.000000 9.533469 0.000206 -0.000099 87.651742 -15.619577 14.990998 3.700043 0.000173 -0.000364 88.334891 -15.037997 14.609232 2.950071 0.000153 -0.000196 85.105359 -19.803753 18.211590 2.952860 -0.000015 0.000062 0.000006 -0.000001 -0.000001 9.104601 -0.042849 -1.865220 86.758518 -14.739056 13.937951 3.150039 0.000196 -0.000095 90.722350 -13.740036 13.914542 2.950040 0.000167 -0.000068 91.149851 -16.580846 16.914064 2.644320 0.000016 0.000057 0.000003 -0.000001 -0.000001 8.077855 -0.486739 -3.806408 72.368470 -17.197957 13.064276 3.599981 0.000158 0.014567 73.460365 -12.877577 10.010094 2.100035 0.000160 0.007544 75.651326 -12.615622 10.190891 2.125497 0.000000 0.007513 0.000000 -0.000002 -0.000001 -8.207786 -6.751667 -1.599560 -0.077001 -0.000003 0.000080 -0.000002 -44.370110 0.345938 0.153719 -0.000000 -0.000000 0.000000 -44.423679 -3.043532 -0.076700 0.000000 -0.000002 -0.000006 -8.728667 10.710559 -0.000009 -0.000000 -0.000000 -0.000001 -0.000679 9.278123 0.000000 -0.000000 -0.000000 8.207792 -6.751710 -1.599556 -0.074518 -0.000003 0.000081 -0.000002 -44.370014 0.346960 0.148822 0.000002 0.000000 -0.000001 -44.423664 -3.044403 -0.074314 0.000000 -0.000002 -0.000004 -8.728671 10.710558 0.000007 -0.000000 -0.000000 0.000000 -0.000680 9.278137 -0.000000 0.000000 -0.000001 
0.000006 104.270477 1.554256 0.000010 0.000003 -0.000113 -0.000005 10.181587 0.131522 0.000001 -0.000003 0.000084 -0.000000 9.893967 -1.470711 0.000001 0.000000 -0.000000 -0.000000 9.220802 -1.370642 0.000000 -0.000000 -0.000000 0.000001 16.740433 -2.049030 0.000000 -0.000000 -0.000000 0.000000 9.617859 1.685014 0.000000 0.000000 0.000000 0.000002 22.037384 7.501101 0.000000 -0.000000 0.000000 -4.569968 11.014880 -2.160881 0.000008 0.000001 -0.000038 -10.592871 -0.524772 -2.231899 75.443565 31.765816 -24.824312 -27.841522 0.000003 0.000551 -51.612861 106.423418 65.778185 -28.328823 -0.000006 0.000021 -0.000320 -0.000045 0.000008 -2.464398 -1.573787 2.682338 -46.757812 -163.415978 -7.032811 -3.215286 -1.872577 1.924627 150.561589 32.092228 11.357673 -2.654970 -1.527856 1.513059 144.519891 27.995549 -29.245149 -2.018835 -1.152013 1.108049 -0.000003 -0.000002 0.000005 -9.108367 -0.517550 2.260148 103.312253 15.245199 -19.264195 -3.700063 0.000329 0.001533 101.044678 11.837379 -14.319182 -2.850108 0.000370 -0.000250 99.501376 10.424891 -12.300212 -2.772171 -0.000000 -0.000021 -0.000000 -0.000001 0.000000 -9.532581 0.000258 0.000244 87.105075 16.434487 -15.770837 -3.700055 0.000338 0.003936 86.915981 11.060760 -10.395445 -2.950064 0.000339 -0.001817 90.043764 11.665199 -11.666942 -2.946652 0.000002 -0.000155 0.000003 -0.000001 -0.000001 -9.103712 -0.042765 -1.864902 83.638282 18.559972 -16.593863 -3.379335 0.000319 -0.000851 85.071666 8.635662 -7.941169 -2.889731 0.000350 0.000611 93.029765 6.441722 -6.838562 -2.638819 0.000001 0.000938 0.000000 -0.000001 0.000001 -8.076742 -0.486396 -3.806054 77.349454 18.003294 -14.329612 -3.600035 0.000272 -0.003561 80.045630 8.811430 -7.103184 -2.100008 0.000311 -0.005533 83.592575 5.642883 -4.849145 -2.115766 -0.000041 -0.003681 -0.000000 0.000000 -0.000001 4.570446 11.014691 -2.160851 -0.000018 0.000010 -0.000021 10.592424 -0.524462 -2.232375 74.783584 -20.588885 15.807344 27.841833 0.000051 -0.000207 109.778776 -73.254277 93.192884 28.328844 -0.000029 0.000020 0.000023 -0.000091 0.000001 2.465959 -1.576117 2.681920 -44.992881 168.935508 1.830697 3.217814 -1.871762 1.916386 158.402988 -28.995813 12.242995 2.656095 -1.528638 1.514458 141.537475 -27.433984 45.417729 2.020887 -1.154075 1.115144 -0.000001 0.000003 0.000004 9.109377 -0.517865 2.259749 85.930166 -17.391634 16.202886 3.700038 0.000147 -0.000488 81.132136 -11.432206 9.809796 2.850046 0.000189 0.000194 81.845610 -9.248756 8.021204 2.774880 -0.000015 -0.000027 -0.000002 -0.000001 -0.000000 9.533463 0.000230 -0.000078 85.877731 -16.225403 15.103317 3.700051 0.000174 -0.000380 87.411982 -10.417901 9.957505 2.950070 0.000173 -0.000204 88.948604 -13.147020 12.912886 2.952873 -0.000031 0.000062 -0.000001 0.000000 0.000000 9.104572 -0.042833 -1.865206 85.738955 -15.818213 14.698179 3.150033 0.000222 -0.000106 92.729858 -10.287997 10.789191 2.950030 0.000178 -0.000069 94.254801 -11.729614 12.629521 2.644334 0.000048 0.000058 0.000002 -0.000000 -0.000000 8.077845 -0.486732 -3.806405 74.473794 -16.646358 13.143263 3.599995 0.000167 0.014583 77.245615 -13.342378 11.087759 2.100047 0.000175 0.007550 78.458704 -12.196429 10.367062 2.125520 -0.000014 0.007519 0.000000 -0.000000 -0.000000 -8.207786 -6.751667 -1.599560 -0.077001 -0.000003 0.000080 -0.000002 -44.370110 0.345938 0.153719 -0.000000 -0.000000 0.000000 -44.423679 -3.043532 -0.076700 0.000000 -0.000002 -0.000006 -8.728667 10.710559 -0.000009 -0.000000 -0.000000 -0.000001 -0.000679 9.278123 0.000000 -0.000000 -0.000000 8.207792 -6.751710 -1.599556 -0.074518 -0.000003 0.000081 -0.000002 -44.370014 0.346960 0.148822 0.000002 0.000000 -0.000001 -44.423664 -3.044403 -0.074314 0.000000 -0.000002 -0.000004 -8.728671 10.710558 0.000007 -0.000000 -0.000000 0.000000 -0.000680 9.278137 -0.000000 0.000000 -0.000001 
0.000006 104.270477 1.554256 0.000010 0.000003 -0.000113 -0.000005 10.181587 0.131522 0.000001 -0.000003 0.000084 -0.000000 9.893967 -1.470711 0.000001 0.000000 -0.000000 -0.000000 9.220802 -1.370642 0.000000 -0.000000 -0.000000 0.000001 16.740433 -2.049030 0.000000 -0.000000 -0.000000 0.000000 9.617859 1.685014 0.000000 0.000000 0.000000 0.000002 22.037384 7.501101 0.000000 -0.000000 0.000000 -4.569968 11.014880 -2.160881 0.000008 0.000001 -0.000038 -10.592864 -0.524778 -2.231878 75.928351 34.002953 -26.837280 -27.841524 0.000017 0.000544 -50.421580 104.831506 62.907080 -28.328814 0.000006 0.000026 -0.000321 -0.000046 0.000007 -2.464418 -1.573757 2.682318 -49.276410 -166.315899 -13.564794 -3.215276 -1.872551 1.924642 150.389209 31.609484 7.939851 -2.654964 -1.527837 1.513051 143.360493 28.155688 -29.148553 -2.018826 -1.151997 1.108063 -0.000005 0.000002 0.000002 -9.108366 -0.517547 2.260139 102.882818 14.774466 -18.534169 -3.700060 0.000320 0.001516 100.350963 11.302072 -13.506710 -2.850067 0.000369 -0.000246 98.813562 10.008731 -11.668400 -2.772161 -0.000000 -0.000019 0.000001 -0.000004 -0.000001 -9.532579 0.000260 0.000211 86.749051 15.955511 -15.220093 -3.700082 0.000319 0.003937 86.322676 10.645941 -9.899739 -2.950061 0.000335 -0.001826 89.466073 11.301467 -11.190294 -2.946628 0.000007 -0.000156 -0.000000 -0.000001 -0.000002 -9.103699 -0.042765 -1.864908 83.206047 18.124599 -16.081532 -3.379310 0.000329 -0.000851 84.560474 8.313811 -7.577572 -2.889764 0.000347 0.000602 92.555258 6.109457 -6.434682 -2.638804 -0.000015 0.000942 -0.000001 0.000002 0.000001 -8.076742 -0.486392 -3.806077 76.957012 17.557300 -13.873200 -3.600028 0.000268 -0.003564 79.847575 8.438241 -6.767008 -2.100022 0.000314 -0.005514 83.810164 5.356074 -4.611013 -2.115763 -0.000036 -0.003682 0.000002 -0.000002 -0.000005 4.570446 11.014691 -2.160851 -0.000018 0.000010 -0.000021 10.592436 -0.524467 -2.232382 74.846763 -24.810119 19.108151 27.841837 0.000047 -0.000179 111.469077 -74.987800 96.787107 28.328833 -0.000029 0.000025 0.000025 -0.000089 0.000002 2.466274 -1.576041 2.681830 5.879353 169.150878 -99.969401 3.217861 -1.871831 1.916406 163.496670 -23.417095 35.114467 2.656109 -1.528670 1.514478 141.195378 -27.125104 52.943091 2.020895 -1.154068 1.115148 0.000005 -0.000003 0.000001 9.109396 -0.517875 2.259741 86.104466 -21.580500 20.178957 3.700047 0.000168 -0.000447 83.304327 -13.068127 11.649344 2.850049 0.000177 0.000207 81.623540 -9.876833 8.533275 2.774887 -0.000033 -0.000027 -0.000001 0.000003 -0.000000 9.533481 0.000198 -0.000071 85.238883 -19.509054 17.969767 3.700032 0.000201 -0.000389 87.644277 -9.784241 9.389316 2.950066 0.000169 -0.000200 86.700010 -12.123927 11.452416 2.952861 -0.000016 0.000065 0.000001 0.000001 -0.000001 9.104591 -0.042854 -1.865216 84.256182 -18.392636 16.663157 3.150033 0.000218 -0.000093 91.381681 -10.056135 10.302117 2.950039 0.000186 -0.000074 92.361417 -10.600960 11.046239 2.644309 0.000031 0.000054 0.000002 0.000001 0.000000 8.077837 -0.486736 -3.806412 74.733341 -19.010076 15.039096 3.600007 0.000181 0.014568 78.182430 -15.211325 12.808650 2.100049 0.000177 0.007557 80.346145 -13.681206 11.983217 2.125495 0.000000 0.007512 0.000001 0.000001 0.000000 -8.207786 -6.751667 -1.599560 -0.077001 -0.000003 0.000080 -0.000002 -44.370110 0.345938 0.153719 -0.000000 -0.000000 0.000000 -44.423679 -3.043532 -0.076700 0.000000 -0.000002 -0.000006 -8.728667 10.710559 -0.000009 -0.000000 -0.000000 -0.000001 -0.000679 9.278123 0.000000 -0.000000 -0.000000 8.207792 -6.751710 -1.599556 -0.074518 -0.000003 0.000081 -0.000002 -44.370014 0.346960 0.148822 0.000002 0.000000 -0.000001 -44.423664 -3.044403 -0.074314 0.000000 -0.000002 -0.000004 -8.728671 10.710558 0.000007 -0.000000 -0.000000 0.000000 -0.000680 9.278137 -0.000000 0.000000 -0.000001 
